<?xml version="1.0" encoding="UTF-8"?>
<svg version="1.1" xmlns="http://www.w3.org/2000/svg" width="500" height="500">
<path d="M0 0 C165 0 330 0 500 0 C500 165 500 330 500 500 C335 500 170 500 0 500 C0 335 0 170 0 0 Z " fill="#000000" transform="translate(0,0)"/>
<path d="M0 0 C0.76140289 0.0012085 1.52280579 0.00241699 2.30728149 0.00366211 C48.72586138 0.20218989 89.45225168 17.88876824 123.1875 49.375 C123.94804687 50.07625 124.70859375 50.7775 125.4921875 51.5 C126.05164063 52.11875 126.61109375 52.7375 127.1875 53.375 C126.9375 55.625 126.9375 55.625 126.1875 57.375 C121.2140172 56.98474496 118.78559599 54.44111455 115.4375 51.0625 C98.20727094 34.48661505 77.47818098 23.51317837 55.1875 15.375 C54.06988281 14.96378906 52.95226562 14.55257812 51.80078125 14.12890625 C48.6186389 13.05987281 45.44514051 12.18669241 42.1875 11.375 C41.49221191 11.19453125 40.79692383 11.0140625 40.08056641 10.828125 C-1.58974553 0.40394386 -48.19374492 8.113902 -85.02587891 29.67041016 C-93.87977918 35.12772646 -102.45296234 41.31847507 -110.0234375 48.4609375 C-111.06371094 49.43933594 -111.06371094 49.43933594 -112.125 50.4375 C-112.71925781 51.02660156 -113.31351563 51.61570313 -113.92578125 52.22265625 C-115.8125 53.375 -115.8125 53.375 -118.54296875 53.05859375 C-119.29191406 52.83300781 -120.04085937 52.60742188 -120.8125 52.375 C-119.07506415 42.57242981 -106.1329195 35.87542381 -98.54296875 30.55859375 C-81.17884731 18.68940275 -61.92517885 9.72457211 -41.5 4.75 C-40.23808838 4.4403833 -40.23808838 4.4403833 -38.95068359 4.12451172 C-26.01929265 1.09298587 -13.24436075 -0.03918611 0 0 Z " fill="#003AD6" transform="translate(246.8125,188.625)"/>
<path d="M0 0 C0.61601074 0.33580078 1.23202148 0.67160156 1.86669922 1.01757812 C15.66922527 8.57687272 31.60279182 19.16919653 41 32 C41.25 34.78125 41.25 34.78125 41 37 C36.17918558 36.563301 34.38307074 34.70514402 31.1875 31.1875 C5.36897181 4.03229332 -33.80457704 -11.83941653 -70.92578125 -13.28125 C-109.09481957 -14.1561413 -149.8824819 -2.06012051 -177.99926758 24.66870117 C-179.01754239 25.65803236 -180.0210108 26.66290942 -181.0065918 27.68481445 C-182.37890625 29.04296875 -182.37890625 29.04296875 -185 31 C-187.83984375 30.80078125 -187.83984375 30.80078125 -190 30 C-189.79466634 26.24239406 -189.01131149 25.01186532 -186.3671875 22.23828125 C-185.21612512 21.24771082 -184.05103301 20.27329173 -182.875 19.3125 C-182.24682373 18.78994629 -181.61864746 18.26739258 -180.97143555 17.72900391 C-158.50542255 -0.6307382 -132.47671806 -12.69218888 -104 -18 C-102.90300781 -18.22558594 -101.80601562 -18.45117188 -100.67578125 -18.68359375 C-66.4647251 -24.78519663 -30.02400048 -16.88096413 0 0 Z " fill="#003AD5" transform="translate(325,223)"/>
<path d="M0 0 C1.15143997 0.00273422 1.15143997 0.00273422 2.32614136 0.00552368 C21.90377842 0.08353033 40.538879 2.15559319 59.1875 8.3125 C60.04698242 8.59222656 60.90646484 8.87195313 61.79199219 9.16015625 C85.24885757 16.9092244 106.27660257 28.38284993 125.1875 44.3125 C124.8575 45.6325 124.5275 46.9525 124.1875 48.3125 C120.00814206 48.3125 119.55245836 48.19981459 116.4921875 45.8203125 C115.43269897 45.01726685 115.43269897 45.01726685 114.35180664 44.19799805 C113.59633545 43.61703369 112.84086426 43.03606934 112.0625 42.4375 C79.95988558 18.58101076 42.48111964 6.96365548 2.6875 6.9375 C1.8877475 6.93550598 1.087995 6.93351196 0.26400757 6.93145752 C-14.33237342 6.93558106 -28.58327269 7.95083022 -42.6875 12 C-43.61747803 12.26272705 -44.54745605 12.5254541 -45.50561523 12.79614258 C-66.11760055 18.77458685 -86.21453197 27.57214858 -103.21875 40.828125 C-105.8125 42.3125 -105.8125 42.3125 -108.65625 42.046875 C-109.3678125 41.80453125 -110.079375 41.5621875 -110.8125 41.3125 C-110.49137722 38.38962732 -109.87652858 37.37401531 -107.72265625 35.3046875 C-84.51140109 18.04748545 -57.23230356 7.2488715 -28.8125 2.3125 C-27.9769458 2.14258545 -27.1413916 1.9726709 -26.28051758 1.79760742 C-17.5140083 0.12513313 -8.88593486 -0.04374002 0 0 Z " fill="#003AD4" transform="translate(244.8125,173.6875)"/>
<path d="M0 0 C0.69947754 0.15484863 1.39895508 0.30969727 2.11962891 0.46923828 C6.48215607 1.44942291 10.73494475 2.66159354 15 4 C15.72509766 4.22494141 16.45019531 4.44988281 17.19726562 4.68164062 C27.52973643 7.93684132 37.40169322 11.91503096 47.1875 16.5625 C48.13109375 17.00924072 49.0746875 17.45598145 50.046875 17.91625977 C56.0374873 20.83433985 61.55685034 24.15792433 67 28 C66.67 29.65 66.34 31.3 66 33 C61.39654752 32.45689606 58.17681148 30.40553948 54.375 27.9375 C35.37559518 16.11706969 13.33825666 9.25430678 -8.58422852 5.44189453 C-10.18010619 5.14997552 -11.77005813 4.8232968 -13.35131836 4.46044922 C-22.71003696 2.42795895 -32.15691368 2.60275914 -41.6875 2.625 C-42.60006561 2.62587616 -43.51263123 2.62675232 -44.45285034 2.62765503 C-58.96324823 2.6736037 -72.86691503 3.46234116 -87 7 C-87.99725098 7.24669434 -88.99450195 7.49338867 -90.02197266 7.74755859 C-102.92659756 11.03475702 -115.15832107 15.2740311 -127.13525391 21.09619141 C-128.78075297 21.89373494 -130.44207355 22.65845623 -132.10546875 23.41796875 C-136.8911435 25.66888612 -141.37578482 28.20733639 -145.81640625 31.07421875 C-146.67049072 31.62561523 -147.5245752 32.17701172 -148.40454102 32.74511719 C-150.11283109 33.8590168 -151.81286538 34.98569863 -153.50366211 36.12597656 C-154.67747437 36.89699707 -154.67747437 36.89699707 -155.875 37.68359375 C-156.57367188 38.15337646 -157.27234375 38.62315918 -157.9921875 39.10717773 C-160.43738695 40.19449466 -161.5356273 39.91205273 -164 39 C-163.96875 36.828125 -163.96875 36.828125 -163 34 C-160.72809863 31.89580166 -158.13983267 30.35375535 -155.5 28.75 C-154.73534424 28.27328857 -153.97068848 27.79657715 -153.18286133 27.30541992 C-107.63642968 -0.71704899 -52.58067856 -12.25254615 0 0 Z " fill="#003AD5" transform="translate(291,163)"/>
<path d="M0 0 C2.39428006 2.11689395 4.7034731 4.29371449 7 6.515625 C7.79664063 7.2271875 8.59328125 7.93875 9.4140625 8.671875 C10.16429687 9.3628125 10.91453125 10.05375 11.6875 10.765625 C12.35136719 11.36890625 13.01523437 11.9721875 13.69921875 12.59375 C15 14.515625 15 14.515625 14.70703125 17.25 C14.47371094 17.99765625 14.24039063 18.7453125 14 19.515625 C9.78378228 19.02244357 8.04641404 16.73836323 5.25 13.703125 C-20.32765324 -12.89833742 -55.98656356 -25.82654333 -92.36254883 -26.76757812 C-126.60133776 -27.16682549 -161.80450185 -14.57117319 -186.81835938 9.24707031 C-188.99082696 11.44040341 -191.13840165 13.6434861 -193.1953125 15.94604492 C-194.546875 17.41015625 -194.546875 17.41015625 -197 19.515625 C-199.328125 19.33984375 -199.328125 19.33984375 -201 18.515625 C-201 11.96858226 -196.27865492 8.79839302 -191.8359375 4.34765625 C-139.35229329 -45.23973335 -54.72829999 -45.32187343 0 0 Z " fill="#003AD4" transform="translate(341,251.484375)"/>
<path d="M0 0 C1.13373047 -0.020625 2.26746094 -0.04125 3.43554688 -0.0625 C11.57629887 -0.09960884 18.85292568 1.07750106 26.6875 3.25 C27.49034424 3.46914062 28.29318848 3.68828125 29.12036133 3.9140625 C58.43867771 12.33300697 83.60161352 30.91983244 98.9765625 57.4765625 C99.97666679 59.97132815 99.39127122 61.71642362 98.6875 64.25 C96.97265625 64.17578125 96.97265625 64.17578125 94.6875 63.25 C93.02359204 61.00476234 91.56989868 58.81615502 90.125 56.4375 C79.46903867 39.75402455 65.22820356 27.35389983 47.6875 18.25 C46.63820313 17.693125 45.58890625 17.13625 44.5078125 16.5625 C20.04003124 4.35911783 -10.53019506 4.1717455 -36.3125 11.9375 C-49.27668742 16.57638611 -60.81441926 23.25158057 -71.4375 32 C-73.3125 33.25 -73.3125 33.25 -76.0625 32.9375 C-76.805 32.710625 -77.5475 32.48375 -78.3125 32.25 C-77.38352608 26.75952591 -73.59970844 24.43872897 -69.3125 21.25 C-47.89868791 6.71266237 -25.77531884 0.1160397 0 0 Z " fill="#003AD6" transform="translate(249.3125,247.75)"/>
<path d="M0 0 C3.45675595 2.88144949 6.74777682 5.89109512 10 9 C10.80179688 9.72703125 11.60359375 10.4540625 12.4296875 11.203125 C13.17476562 11.89921875 13.91984375 12.5953125 14.6875 13.3125 C15.35136719 13.92738281 16.01523437 14.54226563 16.69921875 15.17578125 C18 17 18 17 17.70703125 19.23046875 C17.47371094 19.81441406 17.24039063 20.39835937 17 21 C12.64055958 20.50804926 10.90581483 19.29181375 8 16.0625 C-12.81206999 -5.57245249 -43.84339723 -19.23683351 -73.765625 -20.1875 C-102.25875154 -20.71545602 -133.57338068 -14.65643904 -155.5 5 C-158 7 -158 7 -160.875 7.3125 C-161.57625 7.209375 -162.2775 7.10625 -163 7 C-163.28125 4.734375 -163.28125 4.734375 -163 2 C-148.66545179 -12.94194432 -124.60886023 -20.67023044 -105 -25 C-104.11570313 -25.226875 -103.23140625 -25.45375 -102.3203125 -25.6875 C-67.6356145 -33.66608868 -27.5727811 -21.28807606 0 0 Z " fill="#003AD5" transform="translate(328,260)"/>
<path d="M0 0 C1.40886475 0.44980225 1.40886475 0.44980225 2.84619141 0.90869141 C23.91684845 7.66206556 23.91684845 7.66206556 30 11 C29.67 12.65 29.34 14.3 29 16 C23.5930635 15.33721424 18.82968447 13.61137444 13.75 11.75 C-32.49543215 -4.62351886 -85.28347595 -7.16456409 -131.49438477 11.23266602 C-134.13028788 12.03990011 -136.26017929 12.14206932 -139 12 C-139 10.35 -139 8.7 -139 7 C-131.17818739 3.61174938 -123.22303712 1.21290109 -115 -1 C-113.82050781 -1.34160156 -112.64101562 -1.68320313 -111.42578125 -2.03515625 C-76.01223585 -11.7674054 -34.97161082 -11.3848016 0 0 Z " fill="#003AD5" transform="translate(307,152)"/>
<path d="M0 0 C3.446142 2.89203736 6.74802131 5.89242534 10 9 C10.61230469 9.54914063 11.22460938 10.09828125 11.85546875 10.6640625 C22.28728966 20.35586866 30.36416929 34.59991222 35 48 C34.625 50.8125 34.625 50.8125 34 53 C31.703125 52.94921875 31.703125 52.94921875 29 52 C27.66437014 49.56461987 26.69914093 47.3938307 25.75 44.8125 C15.29641358 18.96215839 -3.72198477 2.63760094 -29.04296875 -8.31640625 C-39.96414983 -12.58717115 -51.18004374 -13.39094689 -62.8125 -13.375 C-64.04137939 -13.37338867 -65.27025879 -13.37177734 -66.53637695 -13.37011719 C-78.53459831 -13.20818287 -88.36921088 -10.94125766 -99.19140625 -5.68359375 C-101.71075039 -4.73135784 -103.52245274 -5.04094945 -106 -6 C-105.8359375 -7.80859375 -105.8359375 -7.80859375 -105 -10 C-74.82816099 -30.63592334 -26.94055706 -21.57449795 0 0 Z " fill="#003AD5" transform="translate(309,283)"/>
<path d="M0 0 C1.11914795 -0.00999023 2.2382959 -0.01998047 3.39135742 -0.03027344 C24.89064672 0.19005454 46.48955827 9.01484948 62.04296875 23.94921875 C71.64208081 34.19148739 83.86554235 49.71997411 84.5 64.3125 C84.45875 65.01375 84.4175 65.715 84.375 66.4375 C82.725 66.7675 81.075 67.0975 79.375 67.4375 C78.95734375 66.27992188 78.5396875 65.12234375 78.109375 63.9296875 C69.59127672 41.25798097 56.11339846 23.87706735 34.03076172 13.31640625 C14.26010399 4.56683857 -7.24511985 5.11796058 -27.625 11.4375 C-29.61911216 11.80441664 -31.61803439 12.14905562 -33.625 12.4375 C-33.955 11.1175 -34.285 9.7975 -34.625 8.4375 C-23.96982404 0.85623878 -12.77711116 0.06657026 0 0 Z " fill="#003AD4" transform="translate(246.625,277.5625)"/>
<path d="M0 0 C15.60319518 0.30540062 32.64142572 8.13262102 43.64453125 18.98828125 C44.38058594 19.75527344 45.11664063 20.52226562 45.875 21.3125 C47.02548828 22.41658203 47.02548828 22.41658203 48.19921875 23.54296875 C57.42716208 32.89624918 65.63807335 47.69522446 65.9375 61.11328125 C65.916875 61.83902344 65.89625 62.56476563 65.875 63.3125 C64 63.9375 64 63.9375 61.875 64.3125 C59.16250059 61.60000059 59.03689598 59.23196151 58.1875 55.5 C53.97175205 38.74768417 43.98949262 25.41333652 29.4284668 16.27050781 C20.48979616 11.06568155 10.14390972 7.88928018 -0.20703125 7.55078125 C-2.125 7.3125 -2.125 7.3125 -5.125 5.3125 C-4.01608911 0.40160891 -4.01608911 0.40160891 0 0 Z " fill="#0039D3" transform="translate(252.125,291.6875)"/>
</svg>
